<svg width="151" height="48" viewBox="0 0 151 48" fill="none" xmlns="http://www.w3.org/2000/svg">
<rect width="151" height="48" rx="5" fill="black"/>
<path d="M17.3398 10.4062V36H11.6094V10.4062H17.3398ZM27.4121 21.1992V25.6289H15.7402V21.1992H27.4121ZM28.5371 10.4062V14.8535H15.7402V10.4062H28.5371ZM36.834 16.9805V36H31.332V16.9805H36.834ZM30.998 12.0586C30.998 11.2617 31.2793 10.6113 31.8418 10.1074C32.4043 9.5918 33.1426 9.33398 34.0566 9.33398C34.9707 9.33398 35.709 9.5918 36.2715 10.1074C36.8457 10.6113 37.1328 11.2617 37.1328 12.0586C37.1328 12.8438 36.8457 13.4941 36.2715 14.0098C35.709 14.5137 34.9707 14.7656 34.0566 14.7656C33.1426 14.7656 32.4043 14.5137 31.8418 14.0098C31.2793 13.4941 30.998 12.8438 30.998 12.0586ZM46.5723 9V36H41.0703V9H46.5723ZM59.4922 36.3516C57.9805 36.3516 56.627 36.1113 55.4316 35.6309C54.2363 35.1504 53.2227 34.4883 52.3906 33.6445C51.5703 32.7891 50.9434 31.8047 50.5098 30.6914C50.0762 29.5781 49.8594 28.3887 49.8594 27.123V26.4551C49.8594 25.0371 50.0586 23.7305 50.457 22.5352C50.8555 21.3398 51.4355 20.3027 52.1973 19.4238C52.9707 18.5332 53.9199 17.8477 55.0449 17.3672C56.1699 16.875 57.4531 16.6289 58.8945 16.6289C60.2422 16.6289 61.4434 16.8516 62.498 17.2969C63.5527 17.7305 64.4434 18.3574 65.1699 19.1777C65.8965 19.9863 66.4473 20.9648 66.8223 22.1133C67.209 23.25 67.4023 24.5273 67.4023 25.9453V28.1953H52.0742V24.6621H62.0234V24.2402C62.0234 23.5723 61.9004 22.9863 61.6543 22.4824C61.4199 21.9785 61.0684 21.5918 60.5996 21.3223C60.1426 21.041 59.5625 20.9004 58.8594 20.9004C58.1914 20.9004 57.6348 21.041 57.1895 21.3223C56.7441 21.6035 56.3867 22.002 56.1172 22.5176C55.8594 23.0215 55.6719 23.6133 55.5547 24.293C55.4375 24.9609 55.3789 25.6816 55.3789 26.4551V27.123C55.3789 27.8613 55.4785 28.5352 55.6777 29.1445C55.877 29.7539 56.1699 30.2754 56.5566 30.709C56.9434 31.1426 57.4121 31.4824 57.9629 31.7285C58.5137 31.9746 59.1406 32.0977 59.8438 32.0977C60.7109 32.0977 61.5371 31.9336 62.3223 31.6055C63.1074 31.2656 63.7871 30.7383 64.3613 30.0234L66.9277 32.959C66.541 33.5215 65.9961 34.0664 65.293 34.5938C64.6016 35.1094 63.7695 35.5312 62.7969 35.8594C61.8242 36.1875 60.7227 36.3516 59.4922 36.3516Z" fill="white"/>
<rect x="71.5" y="5" width="70" height="38" rx="5" fill="#F8981D"/>
<path d="M83.1895 9V36H77.7051V9H83.1895ZM82.4688 25.8223L81.0977 25.8574C81.0977 24.5215 81.2617 23.2969 81.5898 22.1836C81.9297 21.0586 82.4102 20.0801 83.0312 19.248C83.6523 18.416 84.3965 17.7715 85.2637 17.3145C86.1426 16.8574 87.1094 16.6289 88.1641 16.6289C89.1016 16.6289 89.957 16.7637 90.7305 17.0332C91.5039 17.3027 92.1719 17.7305 92.7344 18.3164C93.2969 18.9023 93.7305 19.6699 94.0352 20.6191C94.3398 21.5684 94.4922 22.7227 94.4922 24.082V36H88.9727V24.0469C88.9727 23.2383 88.8555 22.6055 88.6211 22.1484C88.3984 21.6914 88.0703 21.3691 87.6367 21.1816C87.2148 20.9941 86.6992 20.9004 86.0898 20.9004C85.375 20.9004 84.7832 21.0293 84.3145 21.2871C83.8457 21.5332 83.4766 21.8789 83.207 22.3242C82.9375 22.7695 82.7441 23.291 82.627 23.8887C82.5215 24.4863 82.4688 25.1309 82.4688 25.8223ZM109.24 31.4121V16.9805H114.76V36H109.592L109.24 31.4121ZM109.82 27.5273L111.332 27.4922C111.332 28.7695 111.18 29.9473 110.875 31.0254C110.582 32.1035 110.137 33.041 109.539 33.8379C108.953 34.6348 108.221 35.2559 107.342 35.7012C106.475 36.1348 105.461 36.3516 104.301 36.3516C103.363 36.3516 102.502 36.2227 101.717 35.9648C100.943 35.6953 100.275 35.2793 99.7129 34.7168C99.1504 34.1426 98.7168 33.4102 98.4121 32.5195C98.1074 31.6172 97.9551 30.5391 97.9551 29.2852V16.9805H103.439V29.3203C103.439 29.8125 103.498 30.2344 103.615 30.5859C103.744 30.9258 103.914 31.207 104.125 31.4297C104.348 31.6523 104.617 31.8164 104.934 31.9219C105.262 32.0273 105.619 32.0801 106.006 32.0801C106.979 32.0801 107.74 31.8809 108.291 31.4824C108.854 31.0723 109.246 30.5273 109.469 29.8477C109.703 29.1562 109.82 28.3828 109.82 27.5273ZM118.346 9H123.83V31.4824L123.268 36H118.346V9ZM135.695 26.2793V26.6484C135.695 28.0898 135.543 29.4023 135.238 30.5859C134.945 31.7695 134.494 32.7949 133.885 33.6621C133.275 34.5176 132.508 35.1797 131.582 35.6484C130.656 36.1172 129.566 36.3516 128.312 36.3516C127.152 36.3516 126.156 36.1113 125.324 35.6309C124.492 35.1387 123.795 34.459 123.232 33.5918C122.67 32.7246 122.213 31.7109 121.861 30.5508C121.521 29.3906 121.258 28.1426 121.07 26.8066V26.1738C121.258 24.8379 121.521 23.5898 121.861 22.4297C122.213 21.2695 122.67 20.2559 123.232 19.3887C123.795 18.5215 124.486 17.8477 125.307 17.3672C126.139 16.875 127.129 16.6289 128.277 16.6289C129.543 16.6289 130.639 16.8691 131.564 17.3496C132.502 17.8301 133.275 18.5039 133.885 19.3711C134.494 20.2266 134.945 21.2461 135.238 22.4297C135.543 23.6016 135.695 24.8848 135.695 26.2793ZM130.211 26.6484V26.2793C130.211 25.5527 130.158 24.8672 130.053 24.2227C129.959 23.5781 129.789 23.0098 129.543 22.5176C129.309 22.0137 128.975 21.6211 128.541 21.3398C128.119 21.0469 127.574 20.9004 126.906 20.9004C126.25 20.9004 125.693 21.0117 125.236 21.2344C124.779 21.457 124.41 21.7734 124.129 22.1836C123.848 22.582 123.643 23.0684 123.514 23.6426C123.385 24.2168 123.314 24.8555 123.303 25.5586V27.4219C123.314 28.3594 123.438 29.1797 123.672 29.8828C123.906 30.5859 124.287 31.1309 124.814 31.5176C125.342 31.8926 126.051 32.0801 126.941 32.0801C127.621 32.0801 128.172 31.9512 128.594 31.6934C129.027 31.4238 129.355 31.0488 129.578 30.5684C129.812 30.0879 129.977 29.5137 130.07 28.8457C130.164 28.1777 130.211 27.4453 130.211 26.6484Z" fill="black"/>
</svg>
